<mxfile host="app.diagrams.net" modified="2021-10-20T14:56:51.897Z" agent="5.0 (Windows NT 10.0; Win64; x64) AppleWebKit/537.36 (KHTML, like Gecko) Chrome/94.0.4606.81 Safari/537.36" etag="lPEBMjiX4XIyc9yiV9Fx" version="15.5.6" type="github">
  <diagram name="Page-1" id="58cdce13-f638-feb5-8d6f-7d28b1aa9fa0">
    <mxGraphModel dx="1422" dy="794" grid="1" gridSize="10" guides="1" tooltips="1" connect="1" arrows="1" fold="1" page="1" pageScale="1" pageWidth="1100" pageHeight="850" background="none" math="0" shadow="0">
      <root>
        <mxCell id="0" />
        <mxCell id="1" parent="0" />
        <mxCell id="gKlAvPwjpIg_8ovloaia-25" style="edgeStyle=orthogonalEdgeStyle;rounded=0;orthogonalLoop=1;jettySize=auto;html=1;entryX=0.5;entryY=0;entryDx=0;entryDy=0;" parent="1" source="382b91b5511bd0f7-1" target="gKlAvPwjpIg_8ovloaia-2" edge="1">
          <mxGeometry relative="1" as="geometry" />
        </mxCell>
        <mxCell id="382b91b5511bd0f7-1" value="" style="ellipse;html=1;shape=startState;fillColor=#000000;strokeColor=#ff0000;rounded=1;shadow=0;comic=0;labelBackgroundColor=none;fontFamily=Verdana;fontSize=12;fontColor=#000000;align=center;direction=south;" parent="1" vertex="1">
          <mxGeometry x="10" y="50" width="30" height="30" as="geometry" />
        </mxCell>
        <mxCell id="gKlAvPwjpIg_8ovloaia-1" value="" style="ellipse;html=1;shape=endState;fillColor=#000000;strokeColor=#000000;" parent="1" vertex="1">
          <mxGeometry x="1010" y="30" width="30" height="30" as="geometry" />
        </mxCell>
        <mxCell id="gKlAvPwjpIg_8ovloaia-37" style="edgeStyle=orthogonalEdgeStyle;rounded=0;orthogonalLoop=1;jettySize=auto;html=1;entryX=0.917;entryY=0;entryDx=0;entryDy=0;entryPerimeter=0;" parent="1" source="gKlAvPwjpIg_8ovloaia-2" target="gKlAvPwjpIg_8ovloaia-7" edge="1">
          <mxGeometry relative="1" as="geometry">
            <Array as="points">
              <mxPoint x="510" y="145" />
              <mxPoint x="510" y="80" />
              <mxPoint x="940" y="80" />
            </Array>
          </mxGeometry>
        </mxCell>
        <mxCell id="gKlAvPwjpIg_8ovloaia-65" value="ToDie" style="edgeLabel;html=1;align=center;verticalAlign=middle;resizable=0;points=[];" parent="gKlAvPwjpIg_8ovloaia-37" vertex="1" connectable="0">
          <mxGeometry x="-0.5671" y="4" relative="1" as="geometry">
            <mxPoint as="offset" />
          </mxGeometry>
        </mxCell>
        <mxCell id="gKlAvPwjpIg_8ovloaia-42" style="edgeStyle=orthogonalEdgeStyle;rounded=0;orthogonalLoop=1;jettySize=auto;html=1;entryX=0;entryY=0.5;entryDx=0;entryDy=0;" parent="1" source="gKlAvPwjpIg_8ovloaia-2" target="gKlAvPwjpIg_8ovloaia-3" edge="1">
          <mxGeometry relative="1" as="geometry" />
        </mxCell>
        <mxCell id="gKlAvPwjpIg_8ovloaia-44" value="ToRun" style="edgeLabel;html=1;align=center;verticalAlign=middle;resizable=0;points=[];" parent="gKlAvPwjpIg_8ovloaia-42" vertex="1" connectable="0">
          <mxGeometry x="-0.133" y="-1" relative="1" as="geometry">
            <mxPoint as="offset" />
          </mxGeometry>
        </mxCell>
        <mxCell id="gKlAvPwjpIg_8ovloaia-47" style="edgeStyle=orthogonalEdgeStyle;rounded=0;orthogonalLoop=1;jettySize=auto;html=1;entryX=0;entryY=0.5;entryDx=0;entryDy=0;" parent="1" source="gKlAvPwjpIg_8ovloaia-2" target="gKlAvPwjpIg_8ovloaia-6" edge="1">
          <mxGeometry relative="1" as="geometry">
            <Array as="points">
              <mxPoint x="20" y="145" />
              <mxPoint x="20" y="425" />
            </Array>
          </mxGeometry>
        </mxCell>
        <mxCell id="gKlAvPwjpIg_8ovloaia-54" value="ToSlash" style="edgeLabel;html=1;align=center;verticalAlign=middle;resizable=0;points=[];" parent="gKlAvPwjpIg_8ovloaia-47" vertex="1" connectable="0">
          <mxGeometry x="0.75" relative="1" as="geometry">
            <mxPoint as="offset" />
          </mxGeometry>
        </mxCell>
        <mxCell id="gKlAvPwjpIg_8ovloaia-52" style="edgeStyle=orthogonalEdgeStyle;rounded=0;orthogonalLoop=1;jettySize=auto;html=1;entryX=0;entryY=0.5;entryDx=0;entryDy=0;" parent="1" source="gKlAvPwjpIg_8ovloaia-2" target="gKlAvPwjpIg_8ovloaia-5" edge="1">
          <mxGeometry relative="1" as="geometry">
            <Array as="points">
              <mxPoint x="20" y="145" />
              <mxPoint x="20" y="590" />
            </Array>
          </mxGeometry>
        </mxCell>
        <mxCell id="gKlAvPwjpIg_8ovloaia-55" value="ToShoot" style="edgeLabel;html=1;align=center;verticalAlign=middle;resizable=0;points=[];" parent="gKlAvPwjpIg_8ovloaia-52" vertex="1" connectable="0">
          <mxGeometry x="0.8348" y="4" relative="1" as="geometry">
            <mxPoint x="1" as="offset" />
          </mxGeometry>
        </mxCell>
        <mxCell id="gKlAvPwjpIg_8ovloaia-2" value="Idle" style="rounded=0;whiteSpace=wrap;html=1;" parent="1" vertex="1">
          <mxGeometry x="70" y="115" width="120" height="60" as="geometry" />
        </mxCell>
        <mxCell id="gKlAvPwjpIg_8ovloaia-38" style="edgeStyle=orthogonalEdgeStyle;rounded=0;orthogonalLoop=1;jettySize=auto;html=1;entryX=0.75;entryY=0;entryDx=0;entryDy=0;" parent="1" source="gKlAvPwjpIg_8ovloaia-3" target="gKlAvPwjpIg_8ovloaia-7" edge="1">
          <mxGeometry relative="1" as="geometry" />
        </mxCell>
        <mxCell id="gKlAvPwjpIg_8ovloaia-63" value="ToDie" style="edgeLabel;html=1;align=center;verticalAlign=middle;resizable=0;points=[];" parent="gKlAvPwjpIg_8ovloaia-38" vertex="1" connectable="0">
          <mxGeometry x="-0.7583" y="4" relative="1" as="geometry">
            <mxPoint as="offset" />
          </mxGeometry>
        </mxCell>
        <mxCell id="gKlAvPwjpIg_8ovloaia-49" style="edgeStyle=orthogonalEdgeStyle;rounded=0;orthogonalLoop=1;jettySize=auto;html=1;entryX=0.417;entryY=1.083;entryDx=0;entryDy=0;entryPerimeter=0;" parent="1" source="gKlAvPwjpIg_8ovloaia-3" target="gKlAvPwjpIg_8ovloaia-2" edge="1">
          <mxGeometry relative="1" as="geometry">
            <Array as="points">
              <mxPoint x="120" y="320" />
            </Array>
          </mxGeometry>
        </mxCell>
        <mxCell id="gKlAvPwjpIg_8ovloaia-50" value="ToIdle" style="edgeLabel;html=1;align=center;verticalAlign=middle;resizable=0;points=[];" parent="gKlAvPwjpIg_8ovloaia-49" vertex="1" connectable="0">
          <mxGeometry x="-0.1667" relative="1" as="geometry">
            <mxPoint as="offset" />
          </mxGeometry>
        </mxCell>
        <mxCell id="gKlAvPwjpIg_8ovloaia-61" style="edgeStyle=orthogonalEdgeStyle;rounded=0;orthogonalLoop=1;jettySize=auto;html=1;entryX=0;entryY=0.5;entryDx=0;entryDy=0;" parent="1" source="gKlAvPwjpIg_8ovloaia-3" target="gKlAvPwjpIg_8ovloaia-4" edge="1">
          <mxGeometry relative="1" as="geometry">
            <Array as="points">
              <mxPoint x="400" y="440" />
            </Array>
          </mxGeometry>
        </mxCell>
        <mxCell id="gKlAvPwjpIg_8ovloaia-62" value="ToDash" style="edgeLabel;html=1;align=center;verticalAlign=middle;resizable=0;points=[];" parent="gKlAvPwjpIg_8ovloaia-61" vertex="1" connectable="0">
          <mxGeometry x="0.1852" relative="1" as="geometry">
            <mxPoint as="offset" />
          </mxGeometry>
        </mxCell>
        <mxCell id="gKlAvPwjpIg_8ovloaia-3" value="Run" style="rounded=0;whiteSpace=wrap;html=1;" parent="1" vertex="1">
          <mxGeometry x="340" y="270" width="120" height="60" as="geometry" />
        </mxCell>
        <mxCell id="gKlAvPwjpIg_8ovloaia-39" style="edgeStyle=orthogonalEdgeStyle;rounded=0;orthogonalLoop=1;jettySize=auto;html=1;entryX=0.657;entryY=-0.015;entryDx=0;entryDy=0;entryPerimeter=0;" parent="1" source="gKlAvPwjpIg_8ovloaia-4" target="gKlAvPwjpIg_8ovloaia-7" edge="1">
          <mxGeometry relative="1" as="geometry">
            <Array as="points">
              <mxPoint x="680" y="440" />
              <mxPoint x="680" y="80" />
              <mxPoint x="909" y="80" />
            </Array>
          </mxGeometry>
        </mxCell>
        <mxCell id="gKlAvPwjpIg_8ovloaia-64" value="ToDie" style="edgeLabel;html=1;align=center;verticalAlign=middle;resizable=0;points=[];" parent="gKlAvPwjpIg_8ovloaia-39" vertex="1" connectable="0">
          <mxGeometry x="-0.6186" y="-2" relative="1" as="geometry">
            <mxPoint as="offset" />
          </mxGeometry>
        </mxCell>
        <mxCell id="gKlAvPwjpIg_8ovloaia-197" style="edgeStyle=orthogonalEdgeStyle;rounded=0;orthogonalLoop=1;jettySize=auto;html=1;entryX=0.75;entryY=0;entryDx=0;entryDy=0;" parent="1" source="gKlAvPwjpIg_8ovloaia-4" target="gKlAvPwjpIg_8ovloaia-2" edge="1">
          <mxGeometry relative="1" as="geometry">
            <Array as="points">
              <mxPoint x="610" y="50" />
              <mxPoint x="160" y="50" />
            </Array>
          </mxGeometry>
        </mxCell>
        <mxCell id="gKlAvPwjpIg_8ovloaia-198" value="ToIdle" style="edgeLabel;html=1;align=center;verticalAlign=middle;resizable=0;points=[];" parent="gKlAvPwjpIg_8ovloaia-197" vertex="1" connectable="0">
          <mxGeometry x="0.3892" y="-2" relative="1" as="geometry">
            <mxPoint as="offset" />
          </mxGeometry>
        </mxCell>
        <mxCell id="gKlAvPwjpIg_8ovloaia-199" style="edgeStyle=orthogonalEdgeStyle;rounded=0;orthogonalLoop=1;jettySize=auto;html=1;entryX=0.75;entryY=1;entryDx=0;entryDy=0;" parent="1" source="gKlAvPwjpIg_8ovloaia-4" target="gKlAvPwjpIg_8ovloaia-3" edge="1">
          <mxGeometry relative="1" as="geometry">
            <Array as="points">
              <mxPoint x="590" y="390" />
              <mxPoint x="430" y="390" />
            </Array>
          </mxGeometry>
        </mxCell>
        <mxCell id="gKlAvPwjpIg_8ovloaia-200" value="ToRun" style="edgeLabel;html=1;align=center;verticalAlign=middle;resizable=0;points=[];" parent="gKlAvPwjpIg_8ovloaia-199" vertex="1" connectable="0">
          <mxGeometry x="0.037" y="-1" relative="1" as="geometry">
            <mxPoint as="offset" />
          </mxGeometry>
        </mxCell>
        <mxCell id="gKlAvPwjpIg_8ovloaia-4" value="Dash" style="rounded=0;whiteSpace=wrap;html=1;" parent="1" vertex="1">
          <mxGeometry x="530" y="410" width="120" height="60" as="geometry" />
        </mxCell>
        <mxCell id="gKlAvPwjpIg_8ovloaia-41" style="edgeStyle=orthogonalEdgeStyle;rounded=0;orthogonalLoop=1;jettySize=auto;html=1;entryX=0.25;entryY=0;entryDx=0;entryDy=0;" parent="1" source="gKlAvPwjpIg_8ovloaia-5" target="gKlAvPwjpIg_8ovloaia-7" edge="1">
          <mxGeometry relative="1" as="geometry">
            <Array as="points">
              <mxPoint x="150" y="650" />
              <mxPoint x="320" y="650" />
              <mxPoint x="320" y="110" />
              <mxPoint x="790" y="110" />
              <mxPoint x="790" y="80" />
              <mxPoint x="860" y="80" />
            </Array>
          </mxGeometry>
        </mxCell>
        <mxCell id="gKlAvPwjpIg_8ovloaia-66" value="ToDie" style="edgeLabel;html=1;align=center;verticalAlign=middle;resizable=0;points=[];" parent="gKlAvPwjpIg_8ovloaia-41" vertex="1" connectable="0">
          <mxGeometry x="-0.6076" y="3" relative="1" as="geometry">
            <mxPoint as="offset" />
          </mxGeometry>
        </mxCell>
        <mxCell id="gKlAvPwjpIg_8ovloaia-57" style="edgeStyle=orthogonalEdgeStyle;rounded=0;orthogonalLoop=1;jettySize=auto;html=1;entryX=0.75;entryY=1;entryDx=0;entryDy=0;" parent="1" source="gKlAvPwjpIg_8ovloaia-5" target="gKlAvPwjpIg_8ovloaia-2" edge="1">
          <mxGeometry relative="1" as="geometry">
            <Array as="points">
              <mxPoint x="250" y="590" />
              <mxPoint x="250" y="368" />
              <mxPoint x="160" y="368" />
            </Array>
          </mxGeometry>
        </mxCell>
        <mxCell id="gKlAvPwjpIg_8ovloaia-60" value="ToIdle" style="edgeLabel;html=1;align=center;verticalAlign=middle;resizable=0;points=[];" parent="gKlAvPwjpIg_8ovloaia-57" vertex="1" connectable="0">
          <mxGeometry x="-0.6461" y="1" relative="1" as="geometry">
            <mxPoint as="offset" />
          </mxGeometry>
        </mxCell>
        <mxCell id="gKlAvPwjpIg_8ovloaia-5" value="Shoot" style="rounded=0;whiteSpace=wrap;html=1;" parent="1" vertex="1">
          <mxGeometry x="90" y="560" width="120" height="60" as="geometry" />
        </mxCell>
        <mxCell id="gKlAvPwjpIg_8ovloaia-40" style="edgeStyle=orthogonalEdgeStyle;rounded=0;orthogonalLoop=1;jettySize=auto;html=1;entryX=0.5;entryY=0;entryDx=0;entryDy=0;" parent="1" source="gKlAvPwjpIg_8ovloaia-6" target="gKlAvPwjpIg_8ovloaia-7" edge="1">
          <mxGeometry relative="1" as="geometry">
            <Array as="points">
              <mxPoint x="320" y="480" />
              <mxPoint x="320" y="110" />
              <mxPoint x="820" y="110" />
              <mxPoint x="820" y="80" />
              <mxPoint x="890" y="80" />
            </Array>
          </mxGeometry>
        </mxCell>
        <mxCell id="gKlAvPwjpIg_8ovloaia-67" value="ToDie" style="edgeLabel;html=1;align=center;verticalAlign=middle;resizable=0;points=[];" parent="gKlAvPwjpIg_8ovloaia-40" vertex="1" connectable="0">
          <mxGeometry x="-0.9045" relative="1" as="geometry">
            <mxPoint x="-1" as="offset" />
          </mxGeometry>
        </mxCell>
        <mxCell id="gKlAvPwjpIg_8ovloaia-56" style="edgeStyle=orthogonalEdgeStyle;rounded=0;orthogonalLoop=1;jettySize=auto;html=1;" parent="1" source="gKlAvPwjpIg_8ovloaia-6" edge="1">
          <mxGeometry relative="1" as="geometry">
            <mxPoint x="100" y="180" as="targetPoint" />
            <Array as="points">
              <mxPoint x="100" y="340" />
              <mxPoint x="100" y="340" />
            </Array>
          </mxGeometry>
        </mxCell>
        <mxCell id="gKlAvPwjpIg_8ovloaia-58" value="ToIdle" style="edgeLabel;html=1;align=center;verticalAlign=middle;resizable=0;points=[];" parent="gKlAvPwjpIg_8ovloaia-56" vertex="1" connectable="0">
          <mxGeometry x="-0.3871" y="3" relative="1" as="geometry">
            <mxPoint as="offset" />
          </mxGeometry>
        </mxCell>
        <mxCell id="gKlAvPwjpIg_8ovloaia-6" value="Slash" style="rounded=0;whiteSpace=wrap;html=1;" parent="1" vertex="1">
          <mxGeometry x="90" y="395" width="120" height="60" as="geometry" />
        </mxCell>
        <mxCell id="gKlAvPwjpIg_8ovloaia-15" style="edgeStyle=orthogonalEdgeStyle;rounded=0;orthogonalLoop=1;jettySize=auto;html=1;entryX=0;entryY=0.5;entryDx=0;entryDy=0;" parent="1" source="gKlAvPwjpIg_8ovloaia-7" target="gKlAvPwjpIg_8ovloaia-1" edge="1">
          <mxGeometry relative="1" as="geometry" />
        </mxCell>
        <mxCell id="gKlAvPwjpIg_8ovloaia-7" value="Dead" style="rounded=0;whiteSpace=wrap;html=1;" parent="1" vertex="1">
          <mxGeometry x="830" y="230" width="120" height="60" as="geometry" />
        </mxCell>
      </root>
    </mxGraphModel>
  </diagram>
</mxfile>
